<svg xmlns="http://www.w3.org/2000/svg" xmlns:osb="http://www.openswatchbook.org/uri/2009/osb" id="svg8" version="1.1" viewBox="0 0 352.8 105.8"><defs/><defs id="defs2"><linearGradient id="linearGradient2859" osb:paint="solid"><stop id="stop2857" offset="0" stop-color="#68bd45" stop-opacity="1"/></linearGradient></defs><g id="layer1"><g style="line-height:1.25" id="text12" fill="#6db33f" fill-opacity="1" stroke="none" stroke-width=".3" aria-label="[&gt;] SpringHow" font-family="sans-serif" font-size="51.6" font-style="normal" font-weight="400" transform="scale(.9651 1.03616)"><path id="path172" fill="red" d="M23.3 25.8l1.1.3 1.5.4q.7.2 1.2.6.6.3.6.8 0 .6-.7.8L25 29q-1 .2-2.3.2l-2.4.1q-1.1 0-1.8.3t-.7.8v10l-.1 11.5q-.1 5.7-.5 11.6l2.6-.4q1.4-.3 2.7-.3l.8.2q.7.1.7.4l-.8.3-1.9.3-2.3.3-1.7.2 3.2-.4 3.3-.3.1.9 1-.1q.9 0 1.6.2.7.2.7.8 0 .6-.7 1l-1.1.7h-.3q-2.5 0-5 .4-2.3.4-4.8.4h-3l.3-9.3q.3-4.4.3-8.8l-.3 8.8-.4 9.3H14l1.8.1q2.3 0 4.5-.2t4.5-.2q-1 .5-2.2.7l-2.4.5-2.4.2h-4.3l-2-.1v-5.6h.5l-.1-1.7v-1.7l.2-8q.3-3.9.3-8v-2.8l-.2-3-.2.2-.1-.1-.1 6.1-.2 4.7V37q0-6.8.3-13.8h2.6q1.2-.2 2.5-.2 2.3 0 4.6.3t4.6.3v1.2q0 .4-.5.5l-.8.1h-1.6zm-7 37.8l.2-6q0-3 .3-6.1-.4 1.7-.5 3.3l-.1 3.2v4.2zm-1.7 1l1 .2v-.3zm-3-14v-1.4 1.4z" letter-spacing="-8.2" word-spacing="0"/><path id="path174" fill="#00f" d="M26.6 37.7q2.2 0 5.3.5 3.2.4 6.4 1.2 3.3.8 6.2 2 2.8 1.2 4.4 2.6 1.1 1 2 2.1l1.6 2.4q-3.3 1.9-5.7 2.7-2.4.9-4.5 1.4l-4.2 1q-2.1.5-4.8 1.7-.6.2-1.3.7l-1.6 1-1.5.8q-.8.4-1.3.4l-.6-.6 1.7-.6 1.6-1-1.6.8-1.7.5-.2-.7-.8.2-.6.2-1-.2q-.4-.3-.4-.9 0-.7.4-1.1.4-.5 1-.7 1.4-.5 2.6-1.2l2.5-1.2 2.4-1.2q1.3-.6 2.7-1-1.4.3-2.7 1l-2.4 1.2-2.6 1.2q-1.2.6-2.6.8 1.7-1.8 4-2.9l4.6-2 .2.6q1.8-.8 3.7-1.3l4-.9-.6-.2q-1.7.6-3.5 1-1.7.2-3.5.8l3.3-1q1.7-.5 3.5-.8-.7-.4-2-.7l-3-.8q-1.7-.5-3.5-.8l-3.4-.7-3-.5-2.1-.2V43 43v-.8q0-.5.4-.6l.8-.1h1V41l-.9-.2-1.2-.4-1-.6q-.5-.4-.5-.8 0-.5.5-.7l1.2-.4 1.3-.1h1zM42 47.1l.7-.1-4-1.5-.5.2zm-5.1 2l3.8-.7 3.6-1.1h-.2zm8.5 1.9l-4 1q-2 .2-4 .8l4-.7q2-.4 4-1.1zm-8.5-1.8h-.1z" letter-spacing="-8.2" word-spacing="0"/><path id="path176" fill="red" d="M64.1 54.2l.2 4 .5 4 .5 4 .4 3.8-2.3.4-2.4.2h-1.3l-2-.1-2.6-.2q-1.2 0-2.2-.3-1-.1-1.8-.4-.7-.2-.7-.6l.1-.2 4.3.5 4.2.3-4.2-.4-4.1-.7.2-.5-.9-.2-1.2-.5-1-.5q-.4-.2-.4-.5l.2-.6.6-.5.8-.3q.4 0 .6-.2l5 .8q2.5.5 5 .6v-.2q-2.4-.1-4.6-.6l-4.4-.8 1.2-.2 1.3-.1q1.6 0 3.1.2l3.2.5q-.5-1.3-.7-3l-.5-3.7-.2-3.8v-3.2l.2-8q.2-4 .2-8.1v-2-1.8q-2.4 0-4.7-.3-2.3-.3-4.6-.3v-.2-.6l-.1-.4q0-.5.6-.6h2.6v-.6l-1.2-.1-1.6-.4-1.4-.6q-.5-.4-.5-.8 0-.6 1.2-1l3-.4 3.2-.1h9.3l.4 5.9q.2 2.8.2 5.8 0 4.4-.4 8.8-.3 4.4-.3 8.8zm-6-2.3v1.5l.1 2.5.2 3 .3 2.8.5 2.2q.2.9.6 1l-.9-5.3q-.3-2.7-.3-5.5v-6.7q.2-3.3.2-6.7h-.3l-.3 5.6V52zm1.2-1.6v6.4l.1 2.6.3 2.7.3 2q.3.8.6.9-.6-3.6-1-7.3-.3-3.6-.3-7.3zm5.2 17.3q-.2-3.2-.7-6.5-.5-3.3-.6-6.6V56q0 3 .5 5.9.6 2.9.8 5.8zm-4.8-1.5h1.4l-1.5-.2z" letter-spacing="-8.2" word-spacing="0"/><path id="path178" fill="#58a724" fill-opacity="1" d="M78.7 61.2q0-.4.3-.6l.9-.5 1-.3.7-.3 5 .5 5 .2H94l3.6-.2 4-.4q2-.4 3.7-1Q107 58 108 57t1-2.3q0-1.1-.4-2-.5-1-1.3-1.6-.8-.7-1.8-1.2l-.8-.4.8.5q1 .5 1.7 1.2.7.8 1.2 1.7.5.9.5 2 0 1.2-1 2.1-.8.8-2.3 1.4-1.4.6-3.1.9l-3.4.5-3.2.2h-2.3l-5.3-.2-5.2-.5 1.8-.3 2-.2H97q1.9 0 3.8-.4l.2.6 2-.4 2.2-1q1.1-.4 2-1.2.7-.8.7-1.8 0-1.5-1-2.6-1.1-1.2-2.8-2-1.7-1-3.8-1.6l-4.2-1.2-3.8-1-2.9-.7v.3l2.9.8 3.7 1 4.2 1.2q2 .6 3.7 1.5 1.7.8 2.7 2 1 1.1 1 2.6 0 .8-.7 1.4-.8.6-1.8 1-1 .5-2.2.8l-1.6.3 1.7-.4 2-.8q1-.4 1.8-1 .7-.7.7-1.6 0-1.4-1.1-2.4t-3-1.8q-1.9-.8-4.2-1.4l-5-1.3Q92 47 89.6 46q-2.4-.9-4.2-2.3-1.9-1.4-3-3.3-1.1-2-1.1-4.6 0-2.6 1.2-4.4 1.3-1.9 3.2-3 2-1.2 4.4-1.7 2.4-.5 4.6-.5 3.3 0 6.4.9 3.1 1 6 2.6-.4 0-.4.3l-.2.3v.4q-.1.2-.4.2l-.8-.2-1.2-.4-1.3-.5-.8-.3-.2.5 1.2.6q.8.4 1.4 1 .8.4 1.2 1 .5.7.5 1.3 0 .7-.6.7-.8 0-1.8-.4l-2.4-1-2.8-.8q-1.4-.5-2.9-.5l-2.3.2q-1.3.2-2.5.7-1.2.5-2 1.4-.9.8-.9 2 0 1.3 1.1 2 1.1 1 3 1.6 1.8.7 4.1 1.3l4.8 1.4q2.4.7 4.8 1.7 2.3 1 4.1 2.3 1.9 1.4 3 3.3 1 2 1 4.5 0 2.6-1 4.3-1 1.8-2.7 3-1.7 1.1-3.9 1.8-2.1.6-4.5 1-2.2.3-4.5.3l-4 .1h-6.5l-1.5-.1q-.8 0-1.4-.3-.5-.2-.5-.5v-.3l4.2.2h8.2l3.4-.1h-5.9q-4.9 0-9.6-.2l.1-.6v-.4h-2.1q-.7 0-1.3-.2l-1.1-.4q-.4-.3-.4-.7zm31.7-1.4l-1.9 1.3-1.8.9 1.8-.7q1-.5 1.9-1.5z"/><path id="path180" fill="#58a724" fill-opacity="1" d="M122.2 79.6l.1-5.8V68v-2.7l-.1-2.5v5.7L122 74q0 2.8-.4 5.6l-.4-1-.4-1 .2-2.6v-2.5l.6-.4-.2-2.2v-2.1-2.4-2.2-2.9l-.4-2.9h-.2l.2 4.3.1 4.3v1.8l-.1 1.4q-.1-5-.4-9.8-.2-5-.7-10.3l.2-4.3H118l-.2-1.2q0-.3.4-.5.3-.2 1.4-.2h.5v-.6q-1.7-.2-2.7-.8-.9-.5-.9-1 0-.6 1-1 .9-.3 2.3-.5 1.5-.3 3.3-.4l3.4-.1 3.8.1q2.2.1 4.3.5 2 .4 4 1.3 2 .8 3.7 2.4 1.6 1.5 2.6 3.8t1.4 5.6q0 2.8-1.3 4.6-1.1 1.7-2.8 2.8-1.7 1-3.6 1.6l-3 .6-2.7.6q-1.6.3-2.7.3-1.2 0-1.4-.3-.2-.2-.2-.6 2.4-.1 4.7-.4 2.3-.3 4.6-1l-4.6.9-4.7.3V61q0-.4-.3-.4-.5 0-.9 1.7l-.4 4-.1 4.7v5.5l.1 1.4-.1.9q-.2.3-.9.3v-6.5l-.2 3.3V79h-.9v.4q0 .5.2.7-.6 1-1.3 1-.6 0-.9-.3l-.8-.9zm5-21.5h.7q1.8 0 4.1-.3 2.4-.2 4.5-.7 2-.6 3.4-1.6 1.5-1 1.5-2.7v-.4l-.1-1.2q0-.6-.4-1.1l.2 1 .2 1.3q0 1.6-1.1 2.6-1 1-2.8 1.6-1.6.6-3.7.8l-3.7.2h-2q.6-.6 1.8-.8l2.5-.4 2.5-.3 2.1-.5.3.6q1.8-.9 2.5-1.7.8-.9.8-2.4 0-2.4-1.3-4.2-1.3-1.8-3.5-2.4l-.2.3q2 .7 3.3 2.4 1.4 1.6 1.4 4 0 1.2-.6 2-.5.6-1.6 1 1-.3 1.4-1 .5-.7.7-1.6 0-2.1-1-3.6t-2.9-2.4q-1.8-1-4.5-1.3-2.5-.4-5.7-.4.4 2.2.5 4.8 0 2.6.3 5.1zm-5.2-8l.2-.8.1-1.7.2-1.7.2-1h-.7zm15.7 5.3l.3-.1z"/><path id="path182" fill="#58a724" fill-opacity="1" d="M160.2 65.2h-2.6q-1.3 0-1.9.4l-.6.3-.2-1V64l-.3-4.8q0-1.4-.6-3l-.7-3.3-.2-2-.2-2-.3-2.1-.4-2.4v-.6-.6L152 40q-.2-1.5-.7-3l.7-.3.5-.1q.3 0 .6.6t.7 2.4h.3l.3-.1q0-.9-.3-1.9l-.4-2-.4-1.6-.1-1.2v-.3l.2-.1q.3 0 .7.5l.9 1.5.9 1.9.8 1.8q1.4-2.6 3.1-4 1.8-1.3 4.7-1.3 2.1 0 3.5.5 1.3.4 2 1 .8.6 1 1.1l.4.6q0 .3-.3.4-1.4-1.3-3-2-1.8-.7-3.6-.7-1.7 0-2.6.5l-1.8 1 1.8-1q1-.3 2.6-.3 1.8 0 3.4.7 1.7.7 2.9 1.8-.3 0-.5.2-.2.1-.2.4.3 0 .6.4l.6.7.4 1 .2.8q0 .9-.7.9-.5 0-1.2-.4-.2 0-.7-.6-.4-.5-1.2-1-.7-.6-1.6-1-1-.5-2-.5t-1.7.4q-.7.4-1.3 1l-1 1.5-.7 1.2q.8-1.4 1.7-2.5 1-1.3 2.6-1.3 1.4 0 2.5.6t1.8 1.4l-2-.7q-1.2-.4-2.3-.4-.6 0-1 .3l-.7.7-.5.8-.5.9h-.6q-1 1.6-1.5 3.6t-.5 4.1l.1 2.3.4 2.2.6 1.6v-1.5l-.3-3.1v-3q0-1.6.3-3l.8-2q-.6 1.2-.8 2.8-.3 1.8-.3 3.7 0 1.6.2 3l.3 2.7.6 3 .4 3.1.1 1 .3 3zm.7-23l-.2.2z"/><path id="path184" fill="#58a724" fill-opacity="1" d="M175.8 62l.4-3.4.4-4 .3-3.8.3-3.3-.5 3.2-.4 3.7-.4 3.9-.4 3.3q-.7-.5-.7-1.4v-1.7l.2-1.6.5-.5v-1l.2-2.7.6-3.1.6-3q.3-1.6.3-2.6l-.6-.2-.4 2.8-.4 3.3-.4 3.3-.2 1.7.2-3.1.5-4.7.6-4.7.5-4.2q0-.7.4-1.6l.6-2 .5.2h.3q.5 0 .7.2.2.2.2.7v.2l.4.2q.4-.8 1-1.3.6-.4 1.1-.4 1.3 0 1.3 2.6 0 1.4-.3 3-.3 1.5-.3 3v.7q0 1.7-.4 3.6l-.8 4-.8 3.8q-.3 1.8-.3 3.4V60q0 .8-.2 1-.3.2-.7.2v-1.7l-.1-1.8-.1 1.6-.1 1.9h-.8v.6q-.4.8-1.2.8l-.8-.2-.8-.5zm10.7-39.7q-1 .5-1.6 1.3l-1.5 1.6.8-.6.7-.8.8-.7 1-.7.3.4.2.3-1.2 1.2-.2-.2-.3-.1q-.1.5-.5.8l-.7.6q-.4.2-.7.6-.4.3-.5.8l.1.1 2.6-2.4-1 1-1.5 1.5-1.5 1.3-.9.5-.8-.1h-.8l-.1-1-.1-.7q0-.2.2-.2l-.2-.5-.3-.8-.4-.9-.2-1q0-.5.4-1l1-.9 1.2-.6.9-.4q.2 0 .1-.2 0-.2.2-.2l1 .3-.8.9-.7.8.8-.8.8-.8.4.2.3.1.2-.1.8.1.8.4q.4.2.6.5.3.2.3.4zM175 56V55v1z"/><path id="path186" fill="#58a724" fill-opacity="1" d="M191.8 61.3l.2-.6.2-.8.2-1.7v-1l-.1-4.7-.3-4.8V46q0-1-.2-1.6l.3-3.5.1-3.6V36v-1.3l.3.1.4-.1.4-.2q.4 0 .6.8.3.8.3 3.4h.4q.3-2.9.8-4.6.6-1.7 1.1-1.7.3 0 .9 1.1.5 1.1.5 3.5l.6-1 1.2-1.3 1.6-1.3 2-1q1-.4 2.5-.4 2.7 0 4.6 1.3 2 1.2 3.4 3.1 1.3 2 2.1 4.4 1 2.4 1.4 5 .5 2.4.6 4.8l.2 4q0 1.4-.2 1.8-.2.2-.7.3 0-4-.5-8.1-.4-4.2-2-8 1.5 4 1.8 8 .4 4 .4 8l-.5-.2-.4.1v.9l.1.8v.8q-.3 1.2-.6 1.7t-.5.5q-.3 0-.5-.3l-.5-.7-.3-.9-.5-1 .2-1.3v-1-3.3q0-2-.3-4-.2-2.3-.8-4.4-.4-2.1-1.3-3.8-.8-1.7-2.1-2.7-1.3-1.1-3.1-1.1-1.3 0-2.2.8-1 .8-1.7 2.1t-1.2 2.9l-.8 2.9 1-3q.4-1.5 1.1-2.7.7-1.3 1.7-2 .9-.9 2.1-.9 1.6 0 2.8 1 1.2.8 2 2.2.8 1.4 1.2 3.2.5 1.7.8 3.6.3 1.8.3 3.6l.1 3v1.9l-.1 2q-.5-2-.7-4.1l-.5-4.2q-.2-2.1-.7-4-.3-2-1-3.7l.3-.5q-.5-1.2-1.2-1.8-.6-.7-1.2-1-.6-.3-1.1-.3h-.7q-1.3 0-2.3.8-1 1-1.8 2.6-.7 1.5-1.3 3.6l-1 4.3-.7 4.6-.5 4.3h.5l.5-3.9.6-4.3.8-4.2q.5-2.1 1.1-3.8.7-1.6 1.6-2.6.8-1 2-1.2-1.2.3-2 1.5t-1.4 3q-.6 1.8-1.1 4l-.9 4-1 7.6-.3 1.3-.2 1-.2 1.2-.3 1.4-.2.6h-.3l-5.2-1.8-.4-.1-.3-.3zm9-26.5q-1 1-1.6 2l-1.1 2q.7-1.5 2-3 1.2-1.5 3.3-2.2l-1.3.4q-.7.3-1.3.8zm6.2-1.7h-.7l3 .9q1.5.5 2.8 2-.8-1.3-2.3-2-1.4-.6-2.8-.9zm1.4 6q-.4-.4-1-.6l-1.3-.5q.9 0 1.5.3.7.3 1.3 1.2zm3.8-3q.8.8 1.4 2l1 2-1-2.2q-.4-1-1.4-1.9z"/><path id="path188" fill="#58a724" fill-opacity="1" d="M243.5 46.4l-1.3-.5.9-1.5 6 1.9.1 3.5.5 3.6.4 3.8.2 3.9q0 2.6-.5 5.3-.4 2.7-1.5 5.1-1 2.5-2.8 4.5-1.7 2-4.3 3.4-1.4 1-3.6 1.7-2.2.9-4.3 1h-.6q-2 0-3.5-.5-1.4-.4-2.2-1-.8-.5-1.2-1l-.3-.6q0-.2.2-.2 1.6 1.2 3.5 1.7 1.8.5 3.7.5 3.1 0 5.8-1.2 2.6-1.3 4.7-3.1-2.1 1.8-4.7 3-2.7 1.2-5.8 1.2-1.8 0-3.5-.5-1.7-.6-3.2-1.8h.3q.2-.1.2-.3l-.4-.4-.8-.9-1-1.3q-.3-.8-.3-1.7 0-.9.7-.9.5 0 1.2.7.6.7 1.6 1.4.9.9 2.2 1.5 1.3.7 3.1.7 2.6 0 4.7-1 2-1 3.6-2.8-1.5 1.7-3.5 2.6-2 1-4.5 1-1.5 0-3-.6-1.3-.5-2.1-1.4l2.2.6q1.3.3 2.8.3 2.8 0 5-1.4 2.1-1.4 3.7-3.6l.7.1q1.2-2 1.6-4.4.6-2.3.6-5l-.2-3.5-.4-3.7-.3.4.4 3.6.1 3.3q0 2-.4 4.1-.4 2-1.3 3.8 1-1.8 1.3-3.9.3-2 .3-4.3l-.2-2.7-.1-2.7-.1-1-1.1 1.4q-.7 1-1.7 1.9l-2.2 1.5q-1.2.7-2.6.7l-1.2.1q-2.8 0-5-1.4-2.1-1.3-3.7-3.5-1.5-2.1-2.3-4.7-.9-2.5-.9-5v-.8q0-3.1 1.1-5.4 1.2-2.3 3.1-3.8 2-1.4 4.7-2 2.7-.8 5.8-.8 3.6 0 7.3 1-.3 0-.3.3v.4l.2.4v.1q-.2.3-.8.3l-1.6-.2-3-.4v.6q1.7.2 3 .7 1.2.4 2 1 .7.4 1 .9.4.5.4.8 0 .2-.3.3h-.4l-2-.2q-1.5-.2-3.8-.2-2 0-4 .3-1.8.2-3.2 1-1.3.7-2 2-.9 1.3-.9 3.3 0 1.7.5 3.3.6 1.5 1.4 2.7.8 1.2 1.8 2 1 .6 2 .6.5 0 1.4-.9 1-.9 2-2.2 1-1.2 1.9-2.7L242 46zm-1.8 10.4l-1.2 1.2-1.4 1-1.6 1-2 .4.3.1q1.6-.2 2.9-.8 1.3-.8 2.2-1.7l1.8-2 1.4-1.6-.1-.6-1.2 1.5-1.1 1.5zm3.7 5q0 2.3-.4 4.5-.5 2-1.3 3.8.9-1.8 1.4-4 .5-2.3.5-4.7V59l-.2-2.5-.3-3-.2.3.3 4 .2 4zm3.8-.3q0-2.7-.2-5.3l-.5-5.1.4 4.7q.3 2.4.3 4.8l-.2 3.6q-.2 2-.6 3.8-.5 1.8-1.3 3.6-.8 1.6-2 3 2-2.3 3-5.3.9-3 1.1-6.1z"/><path id="path190" fill="#58a724" fill-opacity="1" d="M281.5 67l-1-.4q-.4-.2-.7-.6l-.1-3.6v-3.6l.1-5.6.2-5.6q-.4 4.5-.4 9 0 4.3-.3 8.7-.7-1-.8-2.3l-.1-2.6v-2.6l.6-.2-.1-3 .1-3.5.3-3.6h-.4l-.5 8.1.3-8-2.8.2q-1.3.2-2.7.2h-5.3l-5.2-.3q0 3-.3 5.8-.2 2.7-.2 5.6v1l.1 1.4-.1 1.2q-.2.5-.6.7l-.4-.1v-5.4 2.7l-.1 2.7h-1v.4q0 1.2-1.1 1.5l-.8-.3-.5-.4-.3-.8q-.2-.4-.2-1.1v-.9l-.2 1.7q-.4-.4-.5-.9l-.1-1V59l.2-2.5.4-.3-.2-3.4v-3.4l.2-3.4v-2.4l-.3-2.4h-.3v4.1l.1 4.1V56q0-5.2-.3-10.3l-.2-10.4.4-4.2.4-4 1.2.1q.6.1.6.9v.8h.6l.3-.7.4-.8.6-.7q.4-.3.8-.3.5 0 .7.8.4.7.5 1.9.2 1.2.2 2.8v8.4l.1 1.6h2.8l.4.6 1.4-.1h3.7l2-.1q1-.1 1.9-.4v-.3l-3.6.3h-3.2l5.2-.4 5.4-.3.2-6 .2-6v-1l1.3-.1q.2 0 .3.2l.2.5.2.6v.4l.4-.5.4-.6.5-.5.3-.3q.9 0 1.4.3.5.3.8.9.3.5.3 1.2l.1 1.3V40q0 5-.6 10t-.6 10l.1 1.3.2 1.8q0 .7-.2 1.2-.1.5-.5.5-.4-1.9-.5-4l.2 4h-.5q-.1.6-.5 1.3-.3.7-1 1zm-23.8-11.4l.1-3.8v-2.6l-.2-2.4v6.9zm11-12.5h1.5l1.6-.2h-3.2l-2.1.1 1 .1zm-5.8 0h3.3-.3l-1.1-.2h-1.2l-.7-.2zm20.5 10.4V57l.1-3.4.4-3.5-.5 3.5zM266 46.7l-3.1-.2v.2z"/><path id="path192" fill="#58a724" fill-opacity="1" d="M302 33.5q.1.3.6.3h.6q2.6.9 5.3 2.5 2.7 1.5 4.8 3.7 2.1 2.2 3.4 5 1.4 2.8 1.4 6 0 2.8-1.1 5.4-1.1 2.5-3 4.4 2-1.7 3-4.2 1.3-2.6 1.3-5.5 0-3.3-1.4-6.2-1.4-2.8-3.6-5.1-2.1-2.3-4.8-3.9-2.7-1.6-5.2-2.5 2 0 4 .9 2 .8 3.9 2.3 1.9 1.4 3.4 3.2 1.6 1.8 2.7 3.8l-.4.5q1 1.5 1.6 3.3.5 1.8.5 3.7 0 3.7-1.6 6.5-1.5 2.7-4 4.6-2.3 1.8-5.2 2.7-2.8 1-5.4 1-1.4 0-2.9-.4-1.4-.3-3-1v.3q1.5.8 3 1.2 1.5.3 3 .3 3.8 0 7.3-1.7 3.6-1.6 6.1-4.5-2.4 3-6 4.7-3.4 1.7-7.3 1.7t-6.3-1.5q-2.4-1.5-3.8-3.7-1.4-2.3-1.8-4.7-.5-2.5-.5-4.5 0-2.6.7-5.1.7-2.6 2.1-4.7 1.5-2.1 3.8-3.6 2.2-1.5 5.4-2.2l-1.5-.3-1.5-.6q-.5-.4-.5-.7 0-.4.9-.8 1-.6 2-.6zm-2.3 6.5q1.4-.5 2.7-.5 1.3 0 2 .4t.7.8q0 .3-.6.6l-1.5.9-2 1.3q-1 .8-2 2.1-.8 1.3-1.4 3-.6 1.9-.6 4.3 0 3.6 1.6 5.4 1.6 1.8 4.4 1.8 1.9 0 3.7-.7 2-.6 3.4-1.7 1.6-1.1 2.5-2.8 1-1.6 1-3.7 0-1.6-.6-3.1-.5-1.6-1.5-3t-2.3-2.6q-1.2-1.3-2.8-2.1-1.5-.9-2.5-1.3-.9-.5-1.3-.9l-1.2.6-2 .8zm3.5-2.4q2.4.8 4.5 2.3 1.9 1.4 3.5 3-1.5-1.7-3.3-3-2-1.7-4.5-2.6zm10 17.6q-.8 1.7-2.2 3 1-.7 1.6-1.5.7-1 1-1.8l.7-1.6.3-1-1.4 3zm3.5 4.5l-.2.2.2-.5.7-1.3.9-1.6.5-1q-.7 2.1-2.1 4.2zm2.9-8.4l-.1 1.6q-.1.8-.4 1.5.4-1.3.4-2.9 0-1.2-.2-2.3l-.5-2 .5 2q.3 1 .3 2zm-16.4-14.5l-.5-.2-.1.2-.1.2v.3l.3.3zm8.3 6.5l-.3-.3.3.3zm7.3 12.1v-.2.2zm0-.3v.1z"/><path id="path194" fill="#58a724" fill-opacity="1" d="M359 37.8q-1.2 2.2-2.7 5.9l-3.5 7.6 3-6 3-6q-.5 2.1-1.3 4.1-.6 2-1.5 3.7l-1.8 3.7-1.8 3.9-.9.5-1.9 4.3q-.9 2.1-2.2 4-1.3 2-3 3.5-1.8 1.5-4.2 2.5l-1.6-1q-.8-.6-1.7-1v-.1-.2V66l.3-1.8.1-1.7.1-.9-.3.3-.1 1.1-.2 1.5-.2 1.4v1.5l4 2.5q1.4-.2 3-1.8 1.8-1.6 3.3-3.8 1.6-2.1 2.8-4.3l1.7-3.2-1.8 3.6q-1 2.2-2.5 4.3-1.4 2-3 3.5-1.7 1.6-3.5 1.9l-4.1-2.4-.1-.5.2-2.2q.3-1.5.3-2.5V62l-.8 1-1.2 1.5-1.3 1.3q-.6.6-1 .6-.9-.6-1.6-1.3l-1.6-1.2q-.4-1.6-1.1-3.2l-1.5-3.2-1.4-3.2q-.7-1.6-1-3.3-.4-2.4-1.2-5-.9-2.4-1.5-4.9l.2.1q.3 0 .5-.3l.5-.2q.3 0 .5.6.3.5.4 1.2l.3 1.4.3.8.6-.2-.2-2.2-.1-2.3v-.5-.7l.2-.8q.2-.3.4-.3.7 0 1.4 1.7.8 1.7 1.6 4.2.9 2.4 1.6 5.1l1.5 4.7.4 1.2.6 1.4.5 1.2.3.8.5-2.2.7-2.9.8-2.8.7-2.2h1.4q1 0 1.9.2l2 .7q.4.8.7 2l.3 2.5.1 2.7v4.6q2.2-3 3.7-6.2l3.2-6.6.5-1.3.8-2 1-2.2 1.1-2.2 1-1.6q.4-.7.7-.7l.3.2-1.7 3.6q-.7 1.8-1.6 3.5l-1.5 3.5-1.5 3.7 6.5-14 .5.5.2-.2.4-1 .7-1.4.8-1.2q.5-.5 1-.5l.3.2.2.5.1.7v.4zm-24.9 21l.6-1.8.7-2.3.7-2.2.6-1.8.2-.8-.6.4h-.2l-.6 2.3-.7 2.4-.7 2.5-.3 2.2.3-.9zm6 10q1.4-.2 3-1.6 1.5-1.4 2.8-3.2 1.4-1.8 2.4-3.6l1.7-3 .8-2q-1 2.2-2.2 4.3-1.2 2.1-2.5 3.9-1.3 1.7-2.6 3-1.4 1.2-2.7 1.6l-1 .4-2-1.4v-1l.2-1.3.1-1.4.1-1.2-.1 1.2-.3 1.3-.2 1.4v.9l.2.5.7.5.8.4.7.4zm8-16.3q-1.2 2.7-2.6 5.2-1.3 2.6-3.3 4.8v.1q2-2.1 3.4-4.8 1.4-2.6 2.5-5.3zM339.5 65l.3-2.8-.8 2.7zm-7.3-3.4q-.2 0-.4.3l-.5.6-.4.7-.3.4.4-.2.5-.7.5-.6.3-.4zm10.3 4q-.8-.5-1.8-.5h-.7l1.1.3 1.2.1zm-4.4-5V60.5zm0 1v-.2.1zm13.5-5.2l-.2.4.2-.4z"/></g></g></svg>