<svg xmlns="http://www.w3.org/2000/svg" xmlns:osb="http://www.openswatchbook.org/uri/2009/osb" id="svg8" version="1.1" viewBox="0 0 105.8 105.8"><defs/><defs id="defs2"><linearGradient id="linearGradient2859" osb:paint="solid"><stop id="stop2857" offset="0" stop-color="#68bd45" stop-opacity="1"/></linearGradient></defs><g id="layer1"><g id="text12" fill="#6db33f" fill-opacity="1" stroke="none" stroke-width=".4" aria-label="[&gt;]" font-family="sans-serif" font-size="83.9" font-style="normal" font-weight="400" letter-spacing="-13.3" style="line-height:1.25" transform="scale(.9651 1.03616)" word-spacing="0"><path id="path209" fill="red" d="M30.2 16.9l1.8.3q1.1.2 2.3.7 1.2.4 2.1 1 1 .6 1 1.3 0 1-1.2 1.4l-3 .5-4 .2q-2 0-3.8.2-1.7 0-3 .5-1 .4-1 1.2v16.2q0 9.4-.3 18.8 0 9.3-.7 18.8 2.2-.2 4.3-.7 2.1-.5 4.3-.5.4 0 1.4.4 1 .2 1 .6 0 .3-1.3.5l-3 .6-3.7.5-2.8.2 5.2-.5 5.4-.5v1.3l1.9-.1q1.2 0 2.4.3 1.2.4 1.2 1.4 0 1-1.2 1.6l-1.8 1.2h-.5q-4 0-8 .6-3.8.6-7.8.6h-.5l-4.4-.1.5-15q.4-7.2.4-14.4-.1 7.3-.5 14.4-.2 7.4-.7 15l2.9.2 2.9.1q3.6 0 7.2-.4 3.7-.3 7.3-.3-1.5.8-3.5 1.2-1.8.5-3.8.8l-4 .3-3.7.1h-3.3q-1.6-.2-3.3-.2V78h.8l-.1-2.8v-2.7q0-6.6.4-13t.4-13V42l-.3-4.7-.4.2-.1-.2-.2 10-.3 7.7v-20q0-11.2.6-22.5l4-.2 4.2-.1q3.8 0 7.4.5 3.8.4 7.6.4l-.2.5.2.8v.6q0 .8-.8 1l-1.3.1h-2.6zM18.6 78.2l.4-9.8.5-9.9q-.6 2.7-.8 5.4l-.2 5.2v3.5l.1 3.4zM16 79.7l1.8.4-.2-.5zM11.1 57V55 57z"/><path id="path211" fill="#00f" d="M35.5 36.2q3.5 0 8.7.7 5 .7 10.4 2 5.2 1.4 10 3.3 4.6 1.8 7.2 4.1 1.8 1.6 3 3.5l2.7 3.8q-5.3 3.1-9.2 4.5-3.8 1.4-7.3 2.2L54.2 62q-3.4.8-7.8 2.8l-2.2 1.1-2.5 1.6-2.5 1.5q-1.2.6-2 .6l-1-1 2.8-1q1.3-.6 2.5-1.6l-2.6 1.2-2.7 1-.4-1.3-1.2.4-1 .2q-.8 0-1.5-.3-.8-.4-.8-1.3 0-1.2.7-1.9t1.7-1.2l4-1.8 4.1-2 4-2q2.1-1 4.3-1.5-2.3.4-4.3 1.4l-4 2-4.1 2q-2 1-4.3 1.3 2.7-3 6.5-4.6 3.8-1.8 7.5-3.2l.3.8q3-1.2 6-2 3.2-1 6.4-1.5l-.8-.3q-2.8.9-5.7 1.5-2.8.5-5.7 1.3 2.7-1 5.4-1.7l5.6-1.2-3.3-1.1-4.9-1.4-5.5-1.2-5.6-1.2-5-.8q-2.1-.3-3.4-.3V45l.1-.3-.1-1.3q.2-.7.7-.9.6-.2 1.3-.2h.8l.8.1.1-.9-1.5-.3-2-.8q-1-.4-1.7-.9-.6-.6-.6-1.3 0-.7.8-1.1.8-.4 1.8-.6 1.1-.3 2.2-.3h1.6zm25.1 15.2l1-.2-6.4-2.4-.9.3zm-8.4 3.4l6.2-1.4q3.5-.8 5.9-1.7l-.3-.1zm13.9 3q-3.2.8-6.5 1.4-3.2.5-6.4 1.5l6.4-1.2q3.3-.6 6.5-1.8zm-13.9-3H52z"/><path id="path213" fill="red" d="M96.5 63q0 3.3.3 6.5l.8 6.4.8 6.4q.5 3.2.7 6.4l-3.8.6q-1.9.3-3.8.3l-2.2-.1h-3.4l-4-.3-3.7-.5q-1.7-.3-2.8-.7-1.1-.3-1.2-1l.2-.3 7 .7 6.8.6-6.8-.8-6.8-1 .4-.9-1.4-.3-2-.7-1.6-.8q-.8-.5-.8-1t.5-.9l1-.7 1.2-.5 1-.4 8 1.4q4.1.6 8.2.8V82q-3.8-.2-7.4-1l-7.2-1.4 2-.2 2-.2q2.7 0 5.2.3 2.6.3 5 .8-.7-2-1-4.9l-.8-6-.3-6.2V58q0-6.5.3-13 .4-6.6.4-13.1l-.1-3.1v-3.1q-3.9 0-7.6-.5-3.7-.5-7.5-.5v-.3-1l-.2-.6q0-.7 1-1H77v-1l-1.8-.2-2.6-.6-2.3-1q-.9-.6-.9-1.3 0-1 2.1-1.4 2.1-.5 4.8-.8l5.2-.2 3.3-.1h5.8l6 .1.7 9.5q.3 4.7.3 9.5 0 7.2-.6 14.3-.5 7.2-.5 14.4zm-9.7-3.8v2.5l.1 4 .4 4.8q.1 2.6.4 4.7.3 2 .8 3.5.4 1.4 1 1.6-.9-4.4-1.5-8.7-.6-4.3-.6-8.8 0-5.5.2-10.9.2-5.3.2-10.9h-.4l-.5 9.2-.1 9zm1.8-2.6v6.6l.1 3.7.2 4.4q.1 2.3.4 4.3.2 2 .6 3.3.4 1.2 1 1.4-1.1-5.9-1.7-11.8-.6-5.8-.6-11.9zm8.6 28.1q-.4-5.3-1.3-10.5-.7-5.3-.8-10.7l-.1 1v1.2q0 4.8.8 9.5 1 4.7 1.4 9.5zm-7.8-2.4h2.2L89 82z"/></g></g></svg>