<?xml version="1.0" encoding="UTF-8"?>
<svg version="1.1" viewBox="0 0 1600 628" xmlns="http://www.w3.org/2000/svg" xmlns:xlink="http://www.w3.org/1999/xlink"><defs><path id="SVGID_1_" d="m177 137c-.4-2.2-2.4-3.6-4.6-3.3-.8.1-1.6.5-2.2 1.1l-21 21-16-31c-1-2-3.4-2.7-5.4-1.7-.7.4-1.3 1-1.7 1.7l-8.9 17-22-42c-1-1.9-3.5-2.7-5.4-1.6-1.1.6-1.9 1.7-2.1 2.9l-22 139 58 32c3.6 2 8.1 2 12 0l58-32-16-103z"/><linearGradient id="sva" x1="1464" x2="124" y1="206" y2="542" gradientTransform="matrix(1 0 0 1 -.78 -.78)" gradientUnits="userSpaceOnUse"><stop stop-color="#f16400" offset="0"/><stop stop-color="#f68511" offset="1"/></linearGradient></defs><rect x="-1.1e-16" y="-1.1e-16" width="1600" height="628" fill="url(#sva)" fill-rule="evenodd" opacity=".99" style="paint-order:stroke fill markers"/><g id="guides" class="st17" transform="matrix(.75 0 0 .75 648 142)"><rect id="XMLID_13_" class="st18" x="-.6" y="272" width="753" height="64"/><rect id="XMLID_10_" class="st18" x="-.6" width="753" height="64"/><rect class="st18" x="688" width="64" height="336"/><rect class="st18" x="196" width="48" height="336"/><rect class="st18" x="-.5" width="64" height="336"/></g><g transform="matrix(1 0 0 1 -.78 -.78)"><g id="XMLID_19_" transform="matrix(1.8 0 0 1.8 786 -27)"><rect id="XMLID_21_" class="st2" x="33" y="90" width="192" height="192"/><clipPath id="SVGID_2_"><use width="100%" height="100%" xlink:href="#SVGID_1_"/></clipPath><g class="st3" clip-path="url(#SVGID_2_)"><path class="st4" d="m65 240 22-139c.3-2.2 2.4-3.7 4.6-3.3 1.2.2 2.3 1 2.9 2.1l22 42 8.9-17c1-2 3.4-2.7 5.4-1.7.7.4 1.3 1 1.7 1.7l60 115z"/><linearGradient id="SVGID_3_" x1="90" x2="82" y1="137" y2="142" gradientTransform="matrix(1 0 0 -1 0 330)" gradientUnits="userSpaceOnUse"><stop stop-color="#A52714" offset="0"/><stop stop-color="#A52714" stop-opacity=".5" offset=".4"/><stop stop-color="#A52714" stop-opacity="0" offset=".8"/></linearGradient><path class="st5" d="m139 99-106-9v192l32-42z" fill="url(#SVGID_3_)"/><path class="st6" d="m140 186-23-44-52 98z"/><linearGradient id="SVGID_4_" x1="124" x2="121" y1="149" y2="153" gradientTransform="matrix(1 0 0 -1 0 330)" gradientUnits="userSpaceOnUse"><stop stop-color="#A52714" stop-opacity=".8" offset="0"/><stop stop-color="#A52714" stop-opacity=".21" offset=".5"/><stop stop-color="#A52714" stop-opacity="0" offset="1"/></linearGradient><path class="st7" d="m33 90h192v192h-192z" fill="url(#SVGID_4_)"/><path class="st8" d="m193 240-17-103c-.4-2.2-2.4-3.6-4.6-3.3-.8.1-1.6.5-2.2 1.1l-105 105 58 32c3.6 2 8.1 2 12 0z"/><path class="st9" d="m177 137c-.4-2.2-2.4-3.6-4.6-3.3-.8.1-1.6.5-2.2 1.1l-21 21-16-31c-1-2-3.4-2.7-5.4-1.7-.7.4-1.3 1-1.7 1.7l-8.9 17-22-42c-1-1.9-3.5-2.7-5.4-1.6-1.1.6-1.9 1.7-2.1 2.9l-22 139h-.1l.1.1.6.3 104-104c1.6-1.6 4.1-1.6 5.7 0 .6.6 1 1.3 1.1 2.2l16 102 .2-.1zm-111 102 22-137c.3-2.2 2.4-3.7 4.6-3.3 1.2.2 2.3 1 2.9 2.1l22 42 8.9-17c1-2 3.4-2.7 5.4-1.7.7.4 1.3 1 1.7 1.7l16 30z"/><path class="st10" d="m135 272c-3.6 2-8.1 2-12 0l-58-32-.1.9 58 32c3.6 2 8.1 2 12 0l58-32-.1-.9z"/><linearGradient id="SVGID_5_" x1="-597" x2="-547" y1="1378" y2="1429" gradientTransform="matrix(2.7 0 0 2.7 1656 -3552)" gradientUnits="userSpaceOnUse"><stop stop-color="#fff" stop-opacity=".1" offset="0"/><stop stop-color="#fff" stop-opacity="0" offset="1"/></linearGradient><path class="st11" d="m177 137c-.4-2.2-2.4-3.6-4.6-3.3-.8.1-1.6.5-2.2 1.1l-21 21-16-31c-1-2-3.4-2.7-5.4-1.7-.7.4-1.3 1-1.7 1.7l-8.9 17-22-42c-1-1.9-3.5-2.7-5.4-1.6-1.1.6-1.9 1.7-2.1 2.9l-22 139 58 32c3.6 2 8.1 2 12 0l58-32z" fill="url(#SVGID_5_)" stroke="#fff" stroke-width="2.8"/></g></g><g id="Layer_2_1_" transform="matrix(.53 0 0 .53 403 207)" stroke="#ffd7b3" stroke-width="6.6"><g stroke="#ffd7b3" stroke-width="6.6"><path class="st0" d="m504 201-100-174c-8.7-15-30-28-48-28h-201c-17 0-39 12-48 28l-100 174c-8.7 15-8.7 40 0 55l100 174c8.7 15 30 28 48 28h201c17 0 39-12 48-28l100-174c8.7-15 8.7-40 0-55zm-270-105c0-11 9.3-21 21-21s21 9.3 21 21v124c0 11-9.3 21-21 21s-21-9.3-21-21zm21 264c-77 0-140-63-140-140 .1-44 21-86 57-113 8.2-6.1 20-4.4 26 3.8s4.4 20-3.8 26c-46 34-56 99-21 145s99 56 145 21c26-20 42-50 42-83-.1-33-16-64-42-83-8.2-6-9.9-18-3.9-26s18-9.9 26-3.9c36 26 57 68 57 113 0 78-63 140-140 140z" stroke="#ffd7b3" stroke-width="6.6"/></g></g><g transform="matrix(.21 0 0 .21 727 270)"><path d="m489 186h-163v-163c0-13-10-23-23-23h-93c-13 0-23 10-23 23v163h-163c-13 0-23 10-23 23v93c0 13 10 23 23 23h163v163c0 13 10 23 23 23h93c13 0 23-10 23-23v-163h163c13 0 23-10 23-23v-93c0-13-10-23-23-23z" fill="#ffcc31" stroke="#fff" stroke-width="22" style="paint-order:stroke fill markers"/><path d="m209 0c-13 0-23 10-23 23v163h-163c-13 0-23 10-23 23v93c0 13 10 23 23 23h163v163c0 13 10 23 23 23h47v-512z" fill="#ede7a4"/></g></g><style type="text/css">.st0{fill:#6DB33F;}</style><style type="text/css">.st0{fill:#FFFFFF;}
	.st1{opacity:0.7;}
	.st2{fill:none;}
	.st3{clip-path:url(#SVGID_2_);}
	.st4{fill:#FFA000;}
	.st5{opacity:0.12;fill:url(#SVGID_3_);enable-background:new    ;}
	.st6{fill:#F57C00;}
	.st7{opacity:0.2;fill:url(#SVGID_4_);enable-background:new    ;}
	.st8{fill:#FFCA28;}
	.st9{fill:#FFFFFF;fill-opacity:0.2;}
	.st10{opacity:0.2;fill:#A52714;enable-background:new    ;}
	.st11{fill:url(#SVGID_5_);}
	.st12{opacity:0.54;}
	.st13{clip-path:url(#SVGID_7_);}
	.st14{opacity:0.12;fill:url(#SVGID_8_);enable-background:new    ;}
	.st15{opacity:0.2;fill:url(#SVGID_9_);enable-background:new    ;}
	.st16{fill:url(#SVGID_10_);}
	.st17{display:none;}
	.st18{display:inline;fill:#00FFFF;fill-opacity:0.2;}</style><style type="text/css">.st0{fill:#6DB33F;}</style></svg>
