<svg xmlns="http://www.w3.org/2000/svg" viewBox="0 0 32 32" width="32" height="32">
	<style>
		tspan { white-space:pre }
		.shp0 { fill: #0e76a8 } 
		.shp1 { fill: #ffffff } 
	</style>
	<g id="Layer">
		<path id="Layer" class="shp0" d="M15.96 0C24.78 0 31.93 7.15 31.93 15.96C31.93 24.78 24.78 31.93 15.96 31.93C7.15 31.93 0 24.78 0 15.96C0 7.15 7.15 0 15.96 0Z" />
		<path id="Layer" class="shp1" d="M8.99 21.93L11.98 21.93L11.98 11.97L8.99 11.97L8.99 21.93ZM20.64 11.62C19.19 11.62 17.89 12.15 16.97 13.32L16.97 11.94L13.97 11.94L13.97 21.93L16.97 21.93L16.97 16.53C16.97 15.39 18.02 14.27 19.33 14.27C20.64 14.27 20.96 15.39 20.96 16.5L20.96 21.93L23.95 21.93L23.95 16.28C23.95 12.35 22.09 11.62 20.64 11.62ZM10.48 10.97C11.3 10.97 11.97 10.3 11.97 9.48C11.97 8.65 11.3 7.98 10.48 7.98C9.65 7.98 8.98 8.65 8.98 9.48C8.98 10.3 9.65 10.97 10.48 10.97Z" />
	</g>
	<g id="Layer">
	</g>
	<g id="Layer">
	</g>
	<g id="Layer">
	</g>
	<g id="Layer">
	</g>
	<g id="Layer">
	</g>
	<g id="Layer">
	</g>
	<g id="Layer">
	</g>
	<g id="Layer">
	</g>
	<g id="Layer">
	</g>
	<g id="Layer">
	</g>
	<g id="Layer">
	</g>
	<g id="Layer">
	</g>
	<g id="Layer">
	</g>
	<g id="Layer">
	</g>
	<g id="Layer">
	</g>
</svg>