<svg xmlns="http://www.w3.org/2000/svg" viewBox="0 0 32 32" width="32" height="32">
	<style>
		tspan { white-space:pre }
		.shp0 { fill: #fe5022 } 
		.shp1 { fill: #ff3501 } 
		.shp2 { fill: #ece5dd } 
	</style>
	<path id="Layer" class="shp0" d="M16 32C7.15 32 0 24.85 0 16C0 7.15 7.15 0 16 0C24.85 0 32 7.15 32 16C32 24.85 24.85 32 16 32Z" />
	<path id="Layer" class="shp1" d="M16 0C15.29 0 14.6 0.05 13.91 0.14C21.76 1.16 27.83 7.87 27.83 16C27.83 24.13 21.76 30.84 13.91 31.86C14.6 31.95 15.29 32 16 32C24.84 32 32 24.84 32 16C32 7.16 24.84 0 16 0Z" />
	<g id="Layer">
		<path id="Layer" class="shp2" d="M20.17 7.69C19 7.69 18.05 6.74 18.05 5.57C18.05 4.4 19 3.44 20.17 3.44C21.34 3.44 22.3 4.4 22.3 5.57C22.3 6.74 21.34 7.69 20.17 7.69Z" />
		<path id="Layer" class="shp2" d="M16 28.56C10 28.56 5.11 24.48 5.11 19.48C5.11 14.47 10 10.4 16 10.4C22 10.4 26.89 14.47 26.89 19.48C26.89 24.48 22 28.56 16 28.56Z" />
		<path id="Layer" class="shp2" d="M26.53 17.4C26.04 15.68 24.94 14.12 23.37 12.89L22.86 12.5L23.33 12.05C23.98 11.43 24.84 11.1 25.74 11.1C27.68 11.1 29.25 12.67 29.25 14.61C29.25 15.92 28.49 17.16 27.31 17.75L26.71 18.05L26.53 17.4Z" />
		<path id="Layer" class="shp2" d="M4.69 17.75C3.51 17.16 2.75 15.92 2.75 14.61C2.75 12.67 4.32 11.1 6.26 11.1C7.16 11.1 8.02 11.43 8.67 12.05L9.14 12.5L8.63 12.89C7.06 14.12 5.96 15.68 5.47 17.4L5.29 18.05L4.69 17.75Z" />
	</g>
	<g id="Layer">
		<path id="Layer" class="shp0" d="M11.13 19.51C9.96 19.51 9.01 18.56 9.01 17.39C9.01 16.22 9.96 15.27 11.13 15.27C12.3 15.27 13.25 16.22 13.25 17.39C13.25 18.56 12.3 19.51 11.13 19.51Z" />
		<path id="Layer" class="shp0" d="M20.87 19.51C19.7 19.51 18.75 18.56 18.75 17.39C18.75 16.22 19.7 15.27 20.87 15.27C22.04 15.27 22.99 16.22 22.99 17.39C22.99 18.56 22.04 19.51 20.87 19.51Z" />
		<path id="Layer" class="shp0" d="M21.42 23.17C20 24.36 18.08 25.01 16 25.01C13.92 25.01 12 24.36 10.58 23.17C10.35 22.99 10.03 23.02 9.84 23.24C9.66 23.46 9.69 23.79 9.91 23.98C11.51 25.31 13.68 26.05 16 26.05C18.32 26.05 20.49 25.31 22.09 23.98C22.31 23.79 22.34 23.46 22.16 23.24C21.97 23.02 21.65 22.99 21.42 23.17Z" />
	</g>
	<path id="Layer" fill-rule="evenodd" class="shp2" d="M16.52 11.13L15.48 11.13L15.48 6.26C15.48 6.04 15.62 5.84 15.84 5.77L17.59 5.18C17.78 3.92 18.87 2.96 20.17 2.96C21.61 2.96 22.78 4.13 22.78 5.57C22.78 7 21.61 8.17 20.17 8.17C18.98 8.17 17.96 7.36 17.66 6.26L16.52 6.64L16.52 11.13ZM18.61 5.57C18.61 6.43 19.31 7.13 20.17 7.13C21.04 7.13 21.74 6.43 21.74 5.57C21.74 4.7 21.04 4 20.17 4C19.31 4 18.61 4.7 18.61 5.57Z" />
	<g id="Layer">
	</g>
	<g id="Layer">
	</g>
	<g id="Layer">
	</g>
	<g id="Layer">
	</g>
	<g id="Layer">
	</g>
	<g id="Layer">
	</g>
	<g id="Layer">
	</g>
	<g id="Layer">
	</g>
	<g id="Layer">
	</g>
	<g id="Layer">
	</g>
	<g id="Layer">
	</g>
	<g id="Layer">
	</g>
	<g id="Layer">
	</g>
	<g id="Layer">
	</g>
	<g id="Layer">
	</g>
</svg>