<?xml version="1.0" encoding="utf-8"?>
<!-- Generator: Adobe Illustrator 23.0.2, SVG Export Plug-In . SVG Version: 6.00 Build 0)  -->
<svg version="1.1"
	 id="Layer_1" xmlns:cc="http://creativecommons.org/ns#" xmlns:dc="http://purl.org/dc/elements/1.1/" xmlns:inkscape="http://www.inkscape.org/namespaces/inkscape" xmlns:rdf="http://www.w3.org/1999/02/22-rdf-syntax-ns#" xmlns:sodipodi="http://sodipodi.sourceforge.net/DTD/sodipodi-0.dtd" xmlns:svg="http://www.w3.org/2000/svg"
	 xmlns="http://www.w3.org/2000/svg" xmlns:xlink="http://www.w3.org/1999/xlink" x="0px" y="0px" viewBox="0 0 80 80"
	 style="enable-background:new 0 0 80 80;" xml:space="preserve">
<style type="text/css">
	.st0{fill-rule:evenodd;clip-rule:evenodd;fill:#868686;}
</style>
<g transform="translate(0,-952.36218)">
	<path class="st0" d="M46.9,961.9c-0.2,0-0.5,0.1-0.6,0.3s-0.3,0.4-0.3,0.6v3.9c-0.6,0.2-1.3,0.5-1.8,0.8l-2.7-2.7
		c-0.2-0.2-0.4-0.3-0.6-0.3c-0.2,0-0.5,0.1-0.6,0.3l-2.8,2.8c-0.2,0.2-0.3,0.4-0.3,0.6c0,0.2,0.1,0.5,0.3,0.6l2.8,2.8
		c-0.3,0.6-0.6,1.2-0.7,1.8h-3.9c-0.2,0-0.5,0.1-0.6,0.3s-0.3,0.4-0.3,0.6v3.9c0,0.2,0.1,0.5,0.3,0.6s0.4,0.3,0.6,0.3h3.9
		c0.2,0.6,0.4,1.2,0.7,1.8l-2.8,2.8c-0.2,0.2-0.3,0.4-0.3,0.6s0.1,0.5,0.3,0.6l2.8,2.8c0.2,0.2,0.4,0.3,0.6,0.3
		c0.2,0,0.5-0.1,0.6-0.3l2.7-2.7c0.6,0.3,1.2,0.6,1.8,0.8v3.9c0,0.2,0.1,0.5,0.3,0.6s0.4,0.3,0.6,0.3h3.9c0.2,0,0.5-0.1,0.6-0.3
		c0.2-0.2,0.3-0.4,0.3-0.6v-3.8c0.7-0.2,1.3-0.4,1.9-0.8l2.7,2.7c0.2,0.2,0.4,0.3,0.6,0.3c0.2,0,0.5-0.1,0.6-0.3l2.8-2.8
		c0.2-0.2,0.3-0.4,0.3-0.6c0-0.2-0.1-0.5-0.3-0.6l-2.7-2.7c0.3-0.6,0.6-1.2,0.8-1.9h3.8c0.2,0,0.5-0.1,0.6-0.3
		c0.2-0.2,0.3-0.4,0.3-0.6v-3.9c0-0.2-0.1-0.5-0.3-0.6c-0.2-0.2-0.4-0.3-0.6-0.3h-3.8c-0.2-0.7-0.5-1.3-0.8-1.9l2.7-2.7
		c0.2-0.2,0.3-0.4,0.3-0.6c0-0.2-0.1-0.5-0.3-0.6l-2.8-2.8c-0.2-0.2-0.4-0.3-0.6-0.3c-0.2,0-0.5,0.1-0.6,0.3l-2.7,2.7
		c-0.6-0.3-1.2-0.6-1.9-0.8v-3.8c0-0.2-0.1-0.5-0.3-0.6s-0.4-0.3-0.6-0.3L46.9,961.9z M47.8,963.7H50v3.6c0,0.2,0.1,0.4,0.2,0.6
		c0.1,0.2,0.3,0.3,0.5,0.3c1,0.2,1.8,0.6,2.6,1.1c0.2,0.1,0.4,0.2,0.6,0.1c0.2,0,0.4-0.1,0.5-0.3l2.6-2.6l1.5,1.5l-2.5,2.5
		c-0.1,0.1-0.2,0.3-0.3,0.5c0,0.2,0,0.4,0.1,0.6c0.5,0.8,0.9,1.7,1.1,2.6c0,0.2,0.2,0.4,0.3,0.5c0.2,0.1,0.4,0.2,0.6,0.2h3.6v2.1
		h-3.6c-0.2,0-0.4,0.1-0.6,0.2c-0.2,0.1-0.3,0.3-0.3,0.5c-0.2,1-0.6,1.9-1.1,2.7c-0.1,0.2-0.2,0.4-0.1,0.6c0,0.2,0.1,0.4,0.3,0.5
		l2.5,2.5l-1.5,1.5l-2.6-2.5c-0.1-0.1-0.3-0.2-0.5-0.3c-0.2,0-0.4,0-0.6,0.1c-0.8,0.5-1.7,0.9-2.6,1.1c-0.2,0-0.4,0.2-0.5,0.3
		c-0.1,0.2-0.2,0.4-0.2,0.6v3.6h-2.1v-3.6c0-0.2-0.1-0.4-0.2-0.6c-0.1-0.2-0.3-0.3-0.5-0.3c-0.9-0.2-1.8-0.6-2.6-1.1
		c-0.2-0.1-0.4-0.2-0.6-0.1c-0.2,0-0.4,0.1-0.5,0.3l-2.6,2.6l-1.5-1.5l2.6-2.6c0.1-0.1,0.2-0.3,0.3-0.5c0-0.2,0-0.4-0.1-0.6
		c-0.5-0.8-0.9-1.7-1.1-2.6c0-0.2-0.2-0.4-0.3-0.5c-0.2-0.1-0.4-0.2-0.6-0.2h-3.7v-2.1h3.7c0.2,0,0.4-0.1,0.6-0.2
		c0.2-0.1,0.3-0.3,0.3-0.5c0.2-0.9,0.6-1.8,1.1-2.6c0.1-0.2,0.2-0.4,0.1-0.6c0-0.2-0.1-0.4-0.3-0.5l-2.6-2.6l1.5-1.5l2.6,2.6
		c0.1,0.1,0.3,0.2,0.5,0.3c0.2,0,0.4,0,0.6-0.1c0.8-0.5,1.7-0.9,2.6-1.1c0.2,0,0.4-0.2,0.5-0.3c0.1-0.2,0.2-0.4,0.2-0.6L47.8,963.7z
		"/>
	<path class="st0" d="M48.9,972c-2.3,0-4.3,1.9-4.3,4.3s1.9,4.3,4.3,4.3c2.3,0,4.3-1.9,4.3-4.3C53.2,973.9,51.3,972,48.9,972z
		 M48.9,973.8c1.4,0,2.4,1.1,2.4,2.4s-1.1,2.4-2.4,2.4c-1.4,0-2.4-1.1-2.4-2.4S47.6,973.8,48.9,973.8z"/>
	<path class="st0" d="M75,987.2c-0.7,0-1.5,0.2-2.2,0.6c0,0,0,0,0,0l-13.9,8.7c0,0,0,0,0,0c0,0,0,0,0,0c-0.7-2.5-3-4.3-5.3-3.7
		c0,0,0,0,0,0l-13.8,3.4l-10.6-5.8c-0.2-0.1-0.4-0.1-0.7-0.1l-15.1,4.1l-0.8-2.8c-0.1-0.2-0.2-0.4-0.4-0.6c-0.2-0.1-0.5-0.2-0.7-0.1
		l-9.8,2.6c-0.2,0.1-0.4,0.2-0.6,0.4C1,994.2,1,994.5,1,994.7l7.4,27.4c0.1,0.2,0.2,0.4,0.4,0.6c0.2,0.1,0.5,0.2,0.7,0.1l9.6-2.6
		c0.2-0.1,0.4-0.2,0.5-0.4c0.1-0.2,0.2-0.5,0.1-0.7l-1.1-4.4c4.1-0.5,6.6,0,15.1,0.9c0,0,0,0,0,0c6.9,0.7,9.6,1.6,16.9-0.4
		c0,0,0,0,0,0c7.7-2,13.2-8.6,16.5-11.6h0l10-8.7v0c0.8-0.7,1.4-1.5,1.7-2.5c0.3-1,0.2-2.1-0.3-3.1c0,0,0,0,0,0
		C77.7,988,76.4,987.3,75,987.2L75,987.2z M74.8,989c0.8,0,1.6,0.4,2.1,1.2c0,0,0,0,0,0c0.3,0.6,0.3,1.1,0.2,1.6
		c-0.2,0.6-0.6,1.2-1.2,1.7c0,0,0,0,0,0l-10,8.7c0,0,0,0,0,0c-3.4,3.1-8.8,9.3-15.7,11.2c0,0,0,0,0,0c-7.1,1.9-9.3,1.1-16.3,0.3h0
		c-8.6-0.9-11.3-1.4-15.7-0.8l-1.5-6.3c-0.1-0.2-0.2-0.4-0.4-0.6c-0.2-0.1-0.5-0.2-0.7-0.1c-0.2,0.1-0.4,0.2-0.6,0.4
		c-0.1,0.1-0.1,0.2-0.1,0.3c0,0.1,0,0.2,0,0.4l2.9,11.6l-7.8,2.1L3,995.1l8.1-2.2l2,7.6c0.1,0.2,0.2,0.4,0.4,0.6
		c0.1,0.1,0.2,0.1,0.3,0.1c0.1,0,0.2,0,0.4,0c0.2-0.1,0.4-0.2,0.6-0.4c0.1-0.1,0.1-0.2,0.1-0.3c0-0.1,0-0.2,0-0.4l-1.1-3.9l14.8-4
		l10.6,5.8c0.2,0.1,0.4,0.1,0.7,0.1l14.1-3.5c1.1-0.3,2.6,0.7,3.1,2.4l0,0c0.5,1.8-0.3,3.4-1.4,3.7v0l-16.4,4.4
		c-0.2,0.1-0.4,0.2-0.6,0.4c-0.1,0.2-0.2,0.5-0.1,0.7c0.1,0.2,0.2,0.4,0.4,0.6c0.2,0.1,0.5,0.2,0.7,0.1l16.4-4.4
		c1.7-0.5,2.7-2,2.9-3.8l14.7-9.2C74.1,989.1,74.5,989,74.8,989L74.8,989z"/>
</g>
</svg>
